<svg width="24" height="24" viewBox="0 0 24 24" fill="none" xmlns="http://www.w3.org/2000/svg">
<path d="M14.828 12L16.243 13.414L19.071 10.586C19.8211 9.83582 20.2426 8.81838 20.2426 7.75749C20.2426 6.69659 19.8211 5.67915 19.071 4.92899C18.6995 4.55754 18.2586 4.2629 17.7733 4.06188C17.2879 3.86085 16.7678 3.75739 16.2425 3.75739C15.1816 3.75739 14.1642 4.17882 13.414 4.92899L10.586 7.75699L12 9.17199L14.828 6.34299C15.2031 5.96784 15.7119 5.75708 16.2425 5.75708C16.773 5.75708 17.2818 5.96784 17.657 6.34299C18.0321 6.71814 18.2429 7.22695 18.2429 7.75749C18.2429 8.28803 18.0321 8.79684 17.657 9.17199L14.828 12ZM12 14.829L13.414 16.243L10.586 19.071C9.83582 19.8211 8.81838 20.2426 7.75749 20.2426C6.69659 20.2426 5.67915 19.8211 4.92899 19.071C4.17882 18.3208 3.75739 17.3034 3.75739 16.2425C3.75739 15.1816 4.17882 14.1642 4.92899 13.414L7.75699 10.586L9.17199 12L6.34299 14.829C5.96797 15.2041 5.75734 15.7129 5.75744 16.2433C5.75753 16.7738 5.96834 17.2825 6.34349 17.6575C6.71864 18.0325 7.2274 18.2431 7.75784 18.243C8.28829 18.2429 8.79697 18.0321 9.17199 17.657L12 14.829Z" fill="black"/>
<path d="M14.829 10.586C15.0166 10.3983 15.122 10.1438 15.122 9.87849C15.122 9.61312 15.0166 9.35863 14.829 9.17099C14.6413 8.98334 14.3869 8.87793 14.1215 8.87793C13.8561 8.87793 13.6016 8.98334 13.414 9.17099L9.17199 13.414C9.07648 13.5062 9.0003 13.6166 8.94789 13.7386C8.89548 13.8606 8.86789 13.9918 8.86674 14.1246C8.86558 14.2574 8.89088 14.389 8.94117 14.5119C8.99145 14.6348 9.0657 14.7465 9.15959 14.8404C9.25348 14.9343 9.36514 15.0085 9.48803 15.0588C9.61093 15.1091 9.74261 15.1344 9.87539 15.1332C10.0082 15.1321 10.1394 15.1045 10.2614 15.0521C10.3834 14.9997 10.4937 14.9235 10.586 14.828L14.829 10.586Z" fill="black"/>
</svg>
